<svg xmlns="http://www.w3.org/2000/svg" width="64" height="64"><g style="line-height:1.25;-inkscape-font-specification:'Lucida Sans Typewriter, Normal';font-variant-ligatures:normal;font-variant-caps:normal;font-variant-numeric:normal;font-variant-east-asian:normal"><path style="-inkscape-font-specification:'Lucida Sans Typewriter, Normal';font-variant-ligatures:normal;font-variant-caps:normal;font-variant-numeric:normal;font-variant-east-asian:normal" d="M52.445 52.51H12.609V39.836q0-3.581.376-6 .566-3.52 3.015-5.632 2.423-2.143 5.518-2.143 2.853 0 5.437 1.898 1.265.949 2.315 2.235 1.05 1.255 2.45 4.867 1.345-5.54 4.225-8.235 2.853-2.694 6.514-2.694 2.503 0 4.737 1.378 2.207 1.347 3.5 3.704 1.237 2.235 1.507 4.867.242 2.633.242 6.582zm-22.26-6.031v-2.112q0-2.572-.323-4.806-.323-2.235-1.427-3.98-.969-1.592-2.476-2.48-1.534-.918-3.23-.918-1.588 0-2.853.796-1.265.796-1.938 2.051-.969 1.714-1.157 3.95-.189 2.203-.189 4.683v2.816zm18.276 0V41.03q0-2.388-.188-4.408-.215-2.051-.996-3.275-.808-1.256-2.234-2.02-1.427-.766-2.988-.766-3.391 0-5.948 3.428-2.584 3.398-2.584 10.286v2.204z" fill="#a46843" aria-label="B" font-weight="400" font-size="58.787" font-family="Lucida Sans Typewriter" letter-spacing="0" word-spacing="0" stroke-width="2.939"/></g><g fill="#520" stroke-width="2"><g style="line-height:1.25;-inkscape-font-specification:'Lucida Sans Typewriter, Normal';font-variant-ligatures:normal;font-variant-caps:normal;font-variant-numeric:normal;font-variant-east-asian:normal"><path d="M20.337 46.717V7.802h9.934c3.838 0 6.605.342 8.302 1.025 1.698.684 3.026 1.815 3.985 3.392.978 1.56 1.467 3.243 1.467 5.049 0 1.875-.563 3.83-1.688 5.863-1.107 2.034-3.912 4.016-7.177 5.593l12.315 17.904-5.553.089-11.12-16.29-5.014-.354v16.644zm5.451-16.644l4.911.35c-1.762-4.727 3.502-5.083 5.107-6.766 1.605-1.7 2.408-3.69 2.408-5.969 0-1.21-.268-2.26-.803-3.155-.517-.894-1.347-1.586-2.49-2.077-1.144-.508-3.072-.763-5.784-.763h-3.349z" style="-inkscape-font-specification:'Lucida Sans Typewriter, Normal';font-variant-ligatures:normal;font-variant-caps:normal;font-variant-numeric:normal;font-variant-east-asian:normal" fill="#370d00" aria-label="R" font-weight="400" font-size="55.244" font-family="Lucida Sans Typewriter" letter-spacing="0" word-spacing="0"/></g><path style="mix-blend-mode:normal" d="M25.481 48.856a2.436 2.634 0 01-2.426 2.634 2.436 2.634 0 01-2.446-2.613 2.436 2.634 0 012.407-2.655 2.436 2.634 0 012.465 2.591M47.003 48.803a2.436 2.634 0 01-2.426 2.633 2.436 2.634 0 01-2.446-2.612 2.436 2.634 0 012.406-2.655 2.436 2.634 0 012.466 2.591" fill="none" stroke="#370d00"/></g></svg>